<svg xmlns="http://www.w3.org/2000/svg" xmlns:xlink="http://www.w3.org/1999/xlink" width="500" zoomAndPan="magnify" viewBox="0 0 375 374.999991" height="500" preserveAspectRatio="xMidYMid meet" version="1.0"><path fill="#ffc409" d="M 85.683594 24.1875 L 90.726562 21.167969 L 92.742188 23.183594 C 94.085938 24.523438 97.445312 35.265625 102.824219 55.40625 C 108.199219 75.546875 115.925781 94.683594 126.007812 112.808594 C 136.089844 130.933594 142.472656 140 145.160156 140 L 149.195312 140 L 157.257812 129.929688 C 162.632812 123.214844 167.675781 116.835938 172.378906 110.792969 C 177.082031 104.753906 181.453125 99.046875 185.484375 93.675781 C 189.515625 88.304688 192.539062 84.613281 194.554688 82.597656 L 197.582031 79.578125 L 207.660156 77.5625 C 214.382812 76.21875 227.152344 77.226562 245.96875 80.582031 L 274.195312 85.617188 L 271.167969 97.703125 C 269.152344 105.757812 264.785156 113.816406 258.066406 121.871094 C 251.34375 129.929688 245.96875 136.640625 241.933594 142.011719 C 237.902344 147.382812 231.855469 154.769531 223.789062 164.167969 C 215.726562 173.566406 209.675781 180.953125 205.644531 186.324219 C 201.613281 191.695312 199.597656 196.394531 199.597656 200.421875 L 199.597656 206.464844 L 212.703125 217.539062 C 221.4375 224.925781 234.542969 232.644531 252.015625 240.703125 C 269.488281 248.757812 294.355469 256.816406 326.613281 264.871094 L 375 276.957031 L 352.824219 289.039062 C 338.039062 297.097656 326.613281 302.46875 318.546875 305.152344 C 310.484375 307.839844 299.058594 308.511719 284.273438 307.167969 C 269.488281 305.824219 252.015625 302.46875 231.855469 297.097656 C 211.695312 291.726562 197.582031 287.027344 189.515625 283 C 181.453125 278.96875 173.386719 274.269531 165.324219 268.898438 C 157.257812 263.527344 151.210938 260.84375 147.175781 260.84375 L 141.128906 260.84375 L 116.933594 283 C 100.804688 297.769531 88.710938 307.839844 80.644531 313.210938 C 72.582031 318.582031 65.1875 323.949219 58.46875 329.320312 C 51.746094 334.691406 42.339844 340.0625 30.242188 345.433594 C 18.144531 350.804688 10.082031 353.492188 6.046875 353.492188 L 0 353.492188 L 3.023438 348.457031 C 5.039062 345.097656 8.738281 339.390625 14.113281 331.335938 C 19.488281 323.28125 24.867188 315.894531 30.242188 309.179688 C 35.617188 302.46875 41.667969 293.738281 48.386719 283 C 55.109375 272.257812 61.828125 262.859375 68.546875 254.800781 C 75.269531 246.746094 81.316406 238.6875 86.695312 230.632812 L 94.757812 218.546875 L 92.742188 210.492188 C 91.398438 205.121094 88.710938 199.75 84.675781 194.378906 C 80.644531 189.007812 73.253906 176.253906 62.5 156.109375 C 51.746094 135.96875 43.683594 119.1875 38.304688 105.757812 C 32.929688 92.332031 30.242188 83.605469 30.242188 79.578125 L 30.242188 73.535156 L 55.445312 50.371094 C 72.246094 34.929688 82.324219 26.203125 85.683594 24.1875 Z M 85.683594 24.1875 " fill-opacity="1" fill-rule="evenodd"/></svg>