<svg xmlns="http://www.w3.org/2000/svg" xmlns:xlink="http://www.w3.org/1999/xlink" width="30" zoomAndPan="magnify" viewBox="0 0 375 374.999991" height="30" preserveAspectRatio="xMidYMid meet" version="1.0"><rect x="-37.5" width="450" fill="#ffffff" y="-37.499999" height="449.999989" fill-opacity="1"/><rect x="-37.5" width="450" fill="#ffffff" y="-37.499999" height="449.999989" fill-opacity="1"/><rect x="-37.5" width="450" fill="#ffffff" y="-37.499999" height="449.999989" fill-opacity="1"/><path fill="#000000" d="M 268.730469 190.628906 C 253.785156 190.628906 241.664062 178.511719 241.664062 163.5625 C 241.664062 148.582031 253.816406 136.464844 268.730469 136.464844 C 283.714844 136.464844 295.832031 148.582031 295.832031 163.5625 C 295.832031 178.511719 283.714844 190.628906 268.730469 190.628906 Z M 187.5 190.628906 C 172.550781 190.628906 160.433594 178.511719 160.433594 163.5625 C 160.433594 148.582031 172.550781 136.464844 187.5 136.464844 C 202.480469 136.464844 214.566406 148.582031 214.566406 163.5625 C 214.566406 178.511719 202.480469 190.628906 187.5 190.628906 Z M 106.269531 190.628906 C 91.285156 190.628906 79.167969 178.511719 79.167969 163.5625 C 79.167969 148.582031 91.285156 136.464844 106.269531 136.464844 C 121.214844 136.464844 133.335938 148.582031 133.335938 163.5625 C 133.335938 178.511719 121.214844 190.628906 106.269531 190.628906 Z M 187.5 2.097656 C 83.929688 2.097656 0 74.375 0 163.5625 C 0 198.453125 12.882812 230.746094 34.722656 257.179688 C 40.882812 264.570312 43.011719 266.566406 43.011719 266.566406 C 49.703125 272.828125 54.066406 284.078125 52.699219 291.605469 C 51.335938 299.128906 50.203125 305.253906 50.203125 305.253906 L 40.082031 360.71875 C 38.453125 369.738281 43.3125 372.902344 50.902344 367.777344 L 97.210938 336.515625 L 116.65625 323.363281 C 122.347656 319.535156 132.5 317.570312 139.226562 319.035156 C 139.226562 319.035156 166.328125 324.996094 187.5 324.996094 C 291.039062 324.996094 375 252.71875 375 163.5625 C 375 74.375 291.070312 2.097656 187.5 2.097656 " fill-opacity="1" fill-rule="nonzero"/></svg>