<svg xmlns="http://www.w3.org/2000/svg" xmlns:xlink="http://www.w3.org/1999/xlink" width="50" zoomAndPan="magnify" fill="transparent" viewBox="0 0 375 209.999996" height="50" preserveAspectRatio="xMidYMid meet" version="1.0"><defs><clipPath id="879a7158ae"><path d="M 82.5 1 L 292.5 1 L 292.5 208 L 82.5 208 Z M 82.5 1 " clip-rule="nonzero"/></clipPath></defs><rect x="-37.5" width="450" fill="#ffffff" y="-21" height="251.999995" fill-opacity="1"/><rect x="-37.5" width="450" fill="#ffffff" y="-21" height="251.999995" fill-opacity="1"/><rect x="-37.5" width="450" fill="#ffffff" y="-21" height="251.999995" fill-opacity="1"/><g clip-path="url(#879a7158ae)"><path fill="#040606" d="M 232.988281 106.753906 C 224.617188 106.753906 217.832031 99.964844 217.832031 91.59375 C 217.832031 83.207031 224.636719 76.417969 232.988281 76.417969 C 241.378906 76.417969 248.164062 83.207031 248.164062 91.59375 C 248.164062 99.964844 241.378906 106.753906 232.988281 106.753906 Z M 187.5 106.753906 C 179.128906 106.753906 172.34375 99.964844 172.34375 91.59375 C 172.34375 83.207031 179.128906 76.417969 187.5 76.417969 C 195.890625 76.417969 202.65625 83.207031 202.65625 91.59375 C 202.65625 99.964844 195.890625 106.753906 187.5 106.753906 Z M 142.011719 106.753906 C 133.621094 106.753906 126.835938 99.964844 126.835938 91.59375 C 126.835938 83.207031 133.621094 76.417969 142.011719 76.417969 C 150.378906 76.417969 157.167969 83.207031 157.167969 91.59375 C 157.167969 99.964844 150.378906 106.753906 142.011719 106.753906 Z M 187.5 1.175781 C 129.5 1.175781 82.5 41.648438 82.5 91.59375 C 82.5 111.132812 89.714844 129.21875 101.945312 144.019531 C 105.394531 148.160156 106.585938 149.277344 106.585938 149.277344 C 110.335938 152.78125 112.777344 159.085938 112.011719 163.296875 C 111.25 167.511719 110.613281 170.941406 110.613281 170.941406 L 104.945312 202 C 104.03125 207.054688 106.753906 208.824219 111.003906 205.953125 L 136.9375 188.449219 L 147.828125 181.082031 C 151.015625 178.941406 156.699219 177.839844 160.46875 178.660156 C 160.46875 178.660156 175.644531 181.996094 187.5 181.996094 C 245.480469 181.996094 292.5 141.523438 292.5 91.59375 C 292.5 41.648438 245.5 1.175781 187.5 1.175781 " fill-opacity="1" fill-rule="nonzero"/></g></svg>